<?xml version="1.0" encoding="utf-8"?>
<!-- Generator: Adobe Illustrator 19.1.1, SVG Export Plug-In . SVG Version: 6.00 Build 0)  -->
<svg version="1.1" id="cardlytics" xmlns="http://www.w3.org/2000/svg" xmlns:xlink="http://www.w3.org/1999/xlink" x="0px" y="0px"
	 viewBox="0 0 447.3 104.7" style="enable-background:new 0 0 447.3 104.7;" xml:space="preserve">
<path style="fill:#fff;" d="M103.8,20.6H65.2V1.2H2.4v62.8h18.2v38.6h62.8V83.4h20.4V20.6z M5.8,60.6V4.7h55.9v15.8H41l0,40H24
	V43.3h13l0-3.5H20.6v20.7H5.8z M79.9,99.2H24V64.1h18.3h22.8V43.3l14.8,0v36.6H44.5V68.1l-3.5,0v15.3h38.9V99.2z M44.5,60.6V43.3
	h17.2v17.3H44.5z M100.3,79.9h-17v-40l-38.9,0V24h17.3v12.1l3.5,0V24h35.2V79.9z"/>
<g>
	<path style="fill:#fff;" d="M156,61.5c0.6-1.6,1.4-2.2,2.6-2.2c1.1,0,2.1,0.9,2.1,2.4c0,3.3-5,11.7-15.8,11.7
		c-10.3,0-17-7-17.6-16.1c-0.2-3.1-0.2-8,0-11.2c0.5-9.4,7.6-15.7,17.6-15.7c10.8,0,15.7,8.3,15.7,11.6c0,1.6-1,2.5-2.2,2.5
		c-1.1,0-1.9-0.6-2.5-2.2c-1.8-5-6.6-7.4-11-7.4c-7.3,0-12.5,4.6-12.8,11.2c-0.2,3-0.2,8.4,0,11.3c0.6,6.7,5.3,11.5,12.8,11.5
		C149.3,69,154.1,66.6,156,61.5"/>
	<path style="fill:#fff;" d="M194.6,65.4V53.7c-4.6-1.3-7.8-2-11.7-2c-7.8,0-11.4,3.8-11.4,8.6c0,5.4,3.6,8.5,11.4,8.5
		C187.1,68.8,192.1,67.3,194.6,65.4 M199.3,66.8c0,0.9-0.2,1.5-1,2.2c-2.2,1.6-8.1,4.4-16,4.4c-10,0-15.3-5.1-15.3-13.2
		c0-7.3,5.4-12.9,15.7-12.9c4,0,7.3,0.6,12,1.8v-3.4c0-7.4-3.5-10.5-10.9-10.5c-4.1,0-7.7,1.3-10.2,2.3c-2.1,0.9-3.5-0.3-3.5-1.8
		c0-0.8,0.4-1.8,1.4-2.3c2.6-1.4,7.4-2.8,12.3-2.8c10.1,0,15.5,4.2,15.5,14.4V66.8z"/>
	<path style="fill:#fff;" d="M229.1,33.7c0,1-0.7,2.1-2.5,2.1c-1.7,0-3.1-0.7-6-0.7c-5.4,0-8,2.4-8,8v27.5c0,1.4-1,2.5-2.3,2.5
		c-1.3,0-2.3-1.1-2.3-2.5V42.8c0-7.7,4.5-12.2,12.5-12.2c2.7,0,5.3,0.4,6.6,0.8C228.5,31.8,229.1,32.7,229.1,33.7"/>
	<path style="fill:#fff;" d="M248.7,69c4.3,0,9.8-2.1,11.7-3.6V38.2c-2.1-1.3-7.3-3.1-12.6-3.1c-7.5,0-10.9,3.8-11.7,11.1
		c-0.2,2.6-0.3,8.4,0,11.4C236.9,65.2,240.9,69,248.7,69 M248,30.6c4.8,0,9.4,1.4,12.4,2.7V18.6c0-1.4,1-2.4,2.3-2.4
		c1.3,0,2.3,1,2.3,2.4v47.9c0,0.9-0.1,1.5-1,2.2c-1.8,1.4-8.5,4.9-15.4,4.9c-10.5,0-16.4-6.1-17.2-16.1c-0.2-2.8-0.2-8.4,0-11.2
		C232.3,36.2,238,30.6,248,30.6"/>
	<path style="fill:#fff;" d="M284.1,20v48.7c0,2.4-1.8,4.3-4.2,4.3c-2.2,0-4.2-1.9-4.2-4.3V20c0-2.4,1.8-4.3,4.2-4.3
		C282.2,15.7,284.1,17.6,284.1,20"/>
	<path style="fill:#fff;" d="M288.7,36.3c-1.4-3.2,1-6.2,3.8-6.2c2.2,0,3.7,1.4,4.3,3.2l10.8,25.8c0.1,0.2,0.2,0.2,0.3,0.2
		c0.2,0,0.3-0.1,0.4-0.2l9.9-25.6c0.7-2,2.2-3.4,4.3-3.4c3.1,0,5.3,3.1,4,6.2l-15,35.7c-3.2,7.6-7.6,12.9-10.9,15
		c-1.1,0.7-2.4,1.2-3.6,1.2c-2.2,0-4-1.6-4-4c0-1.2,0.6-2.6,1.8-3.4c2.9-1.8,6.2-5.4,8.4-11L288.7,36.3z"/>
	<path style="fill:#fff;" d="M369.3,35.5c0-2.2-1.8-3.8-4-3.8h-26.1l0-6c0-2.4-1.9-4.3-4.2-4.3c-2.4,0-4.2,1.9-4.2,4.3v33.4
		c0,8.2,4.2,14.4,13.3,14.4c3,0,6.6-0.5,9-1.5c2.1-0.9,2.9-2.3,2.9-3.9c0-2.4-1.9-4.6-5.2-3.8c-1.8,0.5-3.7,1.2-5.8,1.2
		c-3.9,0-5.7-2.3-5.7-6.3l0-20h21.6v29.5c0,2.4,2,4.3,4.2,4.3c2.4,0,4.2-1.9,4.2-4.3C369.3,68.7,369.3,35.5,369.3,35.5z M365.1,24.7
		c2.6,0,4.7-2.2,4.7-4.9c0-2.6-2.1-4.7-4.7-4.7c-2.8,0-4.8,2.1-4.8,4.7C360.3,22.4,362.3,24.7,365.1,24.7z"/>
	<path style="fill:#fff;" d="M403,59.6c0.8-1.6,2-2.3,3.7-2.3c2.3,0,4,1.8,4,4.3c0,4-5.7,11.9-17,11.9
		c-10.5,0-17.7-7.3-18.5-16.5c-0.2-3.3-0.2-8.1,0-11.3c0.6-9.5,8.2-16.1,18.5-16.1c11.3,0,16.9,7.9,16.9,11.9c0,2.4-1.6,4.3-4,4.3
		c-1.6,0-2.8-0.7-3.6-2.3c-1.8-4-5.3-5.8-9.1-5.8c-6,0-9.7,3.4-10.1,8.8c-0.2,2.1-0.2,7,0,9.5c0.5,5.4,3.9,9.3,10.1,9.3
		C397.6,65.3,401.2,63.6,403,59.6"/>
	<path style="fill:#fff;" d="M445.6,60.3c0,8.1-6.8,13.2-16.1,13.2c-6.7,0-11.4-1.8-14.7-4.6c-1.6-1.4-1.9-3.8-0.8-5.4
		c1.3-1.8,3.4-2.2,5.6-0.8c2.6,1.8,5.3,3.1,10.3,3.1c4.9,0,7.4-2.2,7.4-5.3c0-2.3-1.4-3.8-5.5-4.7c-2.7-0.6-2.7-0.6-5.8-1.4
		c-7-1.8-11.6-5.5-11.6-12c0-8,6.8-12.9,15.7-12.9c4.6,0,9.3,1.5,12.1,3.8c1.8,1.4,1.5,4.1,0.4,5.4c-1.3,1.5-3.5,1.6-5.5,0.6
		c-2.3-1.4-4.6-2-7.4-2c-4.9,0-7.2,1.8-7.2,5c0,2.2,1.4,3.4,5.5,4.5l6.2,1.4C441.8,50.1,445.6,54,445.6,60.3"/>
</g>
</svg>
